<?xml version="1.0" standalone="no"?>
<!DOCTYPE svg PUBLIC "-//W3C//DTD SVG 20010904//EN"
 "http://www.w3.org/TR/2001/REC-SVG-20010904/DTD/svg10.dtd">
<svg version="1.0" 
xmlns="http://www.w3.org/2000/svg"
 width="512.000000pt" height="512.000000pt" viewBox="0 0 512.000000 512.000000"
 preserveAspectRatio="xMidYMid meet">


<g transform="translate(0.000000,512.000000) scale(0.100000,-0.100000)"
fill="#000000" stroke="none">
<path d="M3159 5055 c-3 -2 -57 -7 -120 -11 -208 -11 -407 -56 -478 -108 -67
-49 -128 -159 -119 -211 4 -17 -8 -38 -44 -81 -58 -68 -120 -186 -143 -272 -8
-34 -22 -111 -30 -172 -8 -61 -17 -116 -20 -121 -4 -5 -17 -6 -31 -3 -14 4
-24 2 -24 -5 0 -6 11 -13 24 -17 23 -6 24 -6 8 -45 -8 -21 -21 -39 -29 -39
-16 0 -16 -14 2 -65 12 -32 12 -52 3 -104 -13 -75 -6 -172 21 -308 26 -132 33
-219 23 -276 -11 -55 -2 -66 33 -43 34 22 38 20 30 -13 -6 -29 8 -51 20 -31 3
5 10 10 14 10 13 0 93 -161 87 -176 -3 -8 -2 -14 3 -14 15 0 41 37 41 58 0 12
5 22 10 22 6 0 10 -13 10 -30 0 -41 -40 -75 -198 -169 -98 -59 -149 -82 -214
-100 -96 -25 -211 -46 -309 -56 l-67 -7 32 65 c30 63 33 67 94 91 154 61 216
110 277 221 15 28 38 65 51 82 27 35 74 131 74 150 0 6 -16 32 -35 58 l-35 46
25 43 c14 23 25 48 25 55 0 6 -17 30 -39 54 -21 23 -42 52 -45 65 -9 28 -53
51 -121 62 -29 5 -75 19 -102 31 -52 24 -116 28 -214 15 -41 -6 -70 -4 -112 8
-51 15 -60 15 -86 1 -32 -16 -45 -46 -60 -141 -5 -34 -23 -100 -40 -148 -17
-48 -42 -143 -55 -211 -33 -162 -44 -185 -95 -185 -21 0 -43 -6 -48 -12 -5 -7
-29 -61 -53 -120 -40 -100 -59 -124 -75 -98 -10 16 -40 12 -57 -7 -9 -10 -26
-49 -38 -88 -45 -139 -98 -228 -288 -480 -174 -231 -233 -353 -233 -481 0 -67
-3 -79 -54 -179 -58 -115 -64 -135 -40 -155 26 -22 17 -85 -36 -248 -65 -199
-69 -254 -22 -327 33 -52 74 -94 134 -138 28 -21 63 -32 155 -48 171 -30 257
-24 461 35 89 25 166 46 171 46 5 0 12 -80 15 -183 6 -173 26 -359 41 -374 21
-21 646 -69 1106 -84 378 -13 1073 -6 1078 11 2 6 68 10 179 10 l176 0 -6 243
c-10 403 -47 573 -207 963 -16 40 -64 175 -106 300 -81 242 -85 274 -50 341
l14 27 20 -41 c26 -49 119 -153 138 -153 11 0 14 23 14 112 0 65 4 108 9 102
7 -7 67 -137 156 -339 8 -16 28 -61 45 -100 83 -186 158 -438 204 -685 30
-163 43 -304 52 -553 4 -103 10 -189 13 -191 9 -4 359 38 365 44 3 3 15 102
27 219 19 192 20 232 10 414 -14 257 -30 372 -89 607 -9 37 -17 119 -19 189
-1 79 -8 141 -18 170 -14 40 -206 312 -268 380 -12 13 -74 62 -137 108 -162
120 -220 172 -220 193 0 35 60 137 96 165 49 37 119 147 148 231 13 39 31 126
40 195 15 108 30 201 67 429 13 76 67 220 96 251 13 14 23 32 23 41 0 8 7 32
15 51 21 52 18 120 -9 209 -13 42 -22 78 -20 81 2 2 44 -7 92 -20 110 -29 143
-29 170 0 49 52 63 144 38 250 -32 131 -100 201 -266 271 -258 108 -321 146
-465 276 -146 133 -247 170 -460 170 -67 0 -124 -2 -126 -5z m313 -34 c112
-29 182 -69 287 -165 51 -48 120 -103 152 -123 33 -19 59 -37 59 -38 0 -3 -46
8 -124 31 -26 8 -61 14 -76 14 -16 0 -84 16 -151 35 -68 20 -130 34 -139 32
-22 -5 195 -71 355 -107 151 -34 347 -97 434 -139 81 -39 144 -107 170 -182
25 -74 28 -181 6 -230 -11 -26 -14 -29 -15 -13 0 12 -7 28 -16 35 -9 7 -32 46
-52 87 -71 146 -215 240 -547 357 -348 123 -393 140 -475 181 -116 58 -160 92
-193 153 l-29 52 39 -7 c21 -4 83 -20 138 -35 115 -33 125 -34 104 -14 -17 17
-173 74 -204 75 -11 0 -27 5 -35 10 -30 20 230 12 312 -9z m-350 -72 c77 -117
216 -194 558 -309 383 -129 537 -208 628 -325 19 -25 32 -48 29 -51 -3 -4 -26
6 -51 20 -68 40 -299 112 -401 126 -49 6 -229 15 -400 20 -389 10 -517 31
-683 112 -139 68 -208 168 -213 314 l-3 69 80 27 c43 16 95 27 114 25 l35 -2
5 -83 6 -83 57 -54 c130 -124 363 -200 792 -260 233 -32 320 -49 403 -81 71
-26 98 -25 36 1 -116 50 -222 74 -462 105 -183 24 -339 58 -472 102 -243 80
-347 170 -333 289 3 29 1 49 -6 53 -16 10 -14 26 4 26 23 0 89 -44 107 -71 9
-13 24 -33 35 -44 10 -11 38 -45 60 -76 67 -91 229 -184 373 -214 57 -12 23 9
-65 39 -168 58 -253 120 -330 239 -53 81 -81 111 -113 121 -51 16 -18 27 75
24 l98 -3 37 -56z m-562 -127 c0 -184 158 -311 488 -389 98 -23 130 -26 372
-29 259 -4 405 -14 505 -35 115 -24 301 -72 315 -81 11 -6 8 -7 -10 -2 -106
29 -169 35 -485 43 -518 14 -697 36 -948 115 -185 59 -317 189 -317 312 0 31
54 134 70 134 6 0 10 -30 10 -68z m-90 -163 c0 -16 53 -83 100 -125 49 -45
140 -95 210 -115 38 -11 41 -13 20 -17 -14 -2 -36 -14 -50 -27 -20 -19 -35
-24 -75 -23 -73 2 -144 -11 -190 -34 -50 -26 -155 -117 -186 -162 -12 -18 -31
-39 -42 -46 -19 -12 -20 -10 -13 72 4 45 17 117 29 158 19 70 26 80 94 147 53
52 83 74 108 79 35 6 45 18 23 26 -27 10 -78 -14 -129 -60 l-53 -47 26 48 c15
26 46 70 70 96 40 45 58 54 58 30z m460 -289 c126 -38 258 -50 665 -61 226 -6
413 -14 417 -17 11 -11 27 -126 34 -237 6 -105 -10 -191 -34 -189 -7 1 -29 2
-49 3 l-38 2 33 29 c40 37 40 43 2 35 -21 -5 -30 -3 -30 6 0 13 -108 8 -131
-7 -26 -16 30 -23 66 -8 37 15 36 17 39 -37 l2 -25 -126 0 -127 1 -11 68 c-7
37 -12 85 -12 107 0 55 -17 50 -25 -7 -4 -32 -1 -62 9 -90 11 -32 12 -50 4
-80 -7 -27 -7 -62 1 -123 6 -47 14 -104 17 -127 3 -24 9 -45 13 -48 12 -7 23
70 15 102 l-7 26 40 -31 c33 -27 48 -32 99 -34 68 -1 141 10 150 23 6 10 -10
10 -86 0 -67 -10 -111 1 -167 42 -40 28 -43 34 -43 78 0 42 3 47 25 51 23 5
23 4 10 -16 -24 -33 -18 -37 21 -14 35 21 37 21 90 4 30 -9 54 -19 54 -22 0
-3 -33 -4 -74 -3 -40 1 -79 -1 -85 -5 -18 -11 -3 -25 20 -19 11 3 37 -2 58
-12 31 -14 43 -15 61 -5 15 8 41 10 76 5 35 -4 54 -3 54 4 0 6 7 8 15 5 8 -4
15 -2 15 3 0 9 -22 17 -120 43 -25 7 -54 18 -64 26 -17 12 -18 14 -3 19 9 4
24 2 33 -3 12 -7 32 -6 63 4 25 8 61 14 79 14 29 0 32 -3 32 -30 0 -30 15 -41
23 -17 6 18 17 -261 12 -313 -3 -25 -14 -84 -25 -132 -11 -48 -25 -129 -30
-180 -19 -200 -58 -362 -95 -402 -11 -12 -33 -41 -49 -64 -33 -49 -54 -56 -31
-11 29 55 9 55 -41 -1 -115 -129 -125 -137 -189 -150 -74 -16 -241 -7 -305 15
-42 14 -116 77 -155 130 -12 16 -14 17 -15 4 0 -9 10 -29 22 -45 93 -124 170
-158 351 -155 124 2 163 16 224 80 29 30 53 52 53 48 0 -4 -12 -31 -26 -60
-17 -32 -65 -91 -129 -154 -83 -83 -110 -103 -146 -113 -24 -6 -57 -15 -73
-20 -16 -6 -65 -10 -110 -10 l-80 0 -66 69 c-58 62 -186 161 -209 161 -11 0
-149 97 -184 129 -15 14 -42 49 -60 76 -17 28 -37 55 -43 62 -6 7 -37 65 -68
129 -32 64 -68 132 -82 149 -13 18 -24 38 -24 46 0 8 -4 19 -9 24 -4 6 -13 25
-19 43 -10 28 -9 32 7 32 10 0 24 7 31 15 11 13 18 -1 46 -82 35 -99 54 -134
54 -98 0 11 -14 85 -31 165 -33 159 -49 330 -31 330 7 0 8 10 2 31 -5 18 -7
35 -5 40 3 4 2 9 -3 11 -4 1 -17 35 -29 75 l-21 72 23 15 c42 28 86 80 116
140 33 64 31 80 -5 50 -120 -95 -148 -114 -189 -124 -55 -14 -134 0 -178 31
-32 23 -40 54 -11 45 99 -30 156 -32 216 -7 72 32 196 172 167 190 -17 11 23
90 76 151 22 25 45 55 52 67 11 22 71 61 71 46 0 -4 7 3 16 16 17 24 47 24
124 1z m-230 -48 c0 -2 -18 -25 -41 -50 -26 -30 -48 -46 -59 -44 -25 4 -107
-36 -209 -103 -47 -30 -94 -55 -105 -55 -24 0 -60 20 -38 20 8 0 54 40 103 90
87 87 142 126 204 141 29 7 145 7 145 1z m1405 -94 c9 -23 27 -83 41 -132 l24
-90 -44 45 c-43 45 -44 48 -51 133 -8 96 2 112 30 44z m183 -2 c37 -19 75 -42
84 -52 21 -24 33 -70 19 -78 -9 -6 -65 7 -191 42 -19 6 -29 20 -42 57 -9 28
-17 56 -17 64 -1 22 70 6 147 -33z m-1708 -57 c-12 -22 -39 -70 -61 -106 -22
-35 -37 -68 -34 -72 11 -18 -101 -81 -143 -81 -49 0 -142 22 -142 34 0 6 9 29
19 51 16 35 24 41 67 52 39 9 172 80 284 152 28 18 30 11 10 -30z m1537 -151
c41 -45 78 -144 63 -169 -6 -9 -20 -3 -55 25 l-46 38 3 64 c1 35 5 64 9 64 3
0 15 -10 26 -22z m-1598 -174 c-13 -15 -42 -40 -63 -55 -48 -35 -108 -39 -166
-9 -46 24 -64 45 -25 30 36 -14 124 -13 166 2 19 6 50 22 69 35 45 30 49 29
19 -3z m1625 -26 c30 -43 13 -73 -51 -93 -22 -6 -23 -4 -23 70 l0 76 29 -16
c17 -8 37 -25 45 -37z m-1867 -116 c7 -50 23 -56 23 -8 l0 34 56 4 c31 1 58 0
61 -4 2 -5 -5 -8 -16 -8 -25 0 -57 -45 -66 -90 -10 -55 32 -210 57 -210 14 0
9 37 -12 90 -25 62 -25 112 -3 148 24 37 36 44 46 26 5 -10 1 -27 -12 -50 -28
-48 -26 -76 8 -113 25 -26 30 -44 45 -143 16 -112 16 -113 -5 -133 l-21 -20
-21 29 c-12 16 -43 53 -68 82 -53 59 -66 91 -79 195 -5 41 -18 107 -30 148
-11 41 -20 84 -20 95 0 39 51 -25 57 -72z m-70 -29 c8 -32 21 -101 30 -153 14
-88 39 -152 76 -192 59 -66 61 -70 68 -136 4 -37 10 -89 14 -117 l6 -50 -36
60 c-28 47 -34 67 -30 93 7 36 -9 43 -32 15 -12 -16 -13 -13 -8 25 8 48 -1 53
-30 17 l-20 -26 -2 63 c-2 34 -14 123 -27 198 -42 225 -47 349 -9 203z m1893
-4 c-11 -38 -20 -49 -20 -25 0 17 17 56 25 56 2 0 0 -14 -5 -31z m-2555 10
c22 -6 79 -14 127 -18 49 -4 93 -12 100 -19 11 -11 28 -122 31 -211 2 -30 -2
-35 -49 -60 -90 -47 -111 -53 -134 -41 -31 17 -28 82 6 109 30 24 54 27 73 9
10 -11 12 -9 9 7 -2 11 -16 26 -31 33 -23 11 -26 17 -21 40 4 15 13 36 20 47
18 25 18 36 0 29 -8 -3 -25 -25 -37 -50 -13 -24 -31 -44 -40 -44 -9 0 -37 18
-63 41 -38 34 -46 38 -46 21 0 -20 81 -102 101 -102 8 0 6 -7 -4 -18 -48 -53
-18 -182 42 -182 26 0 31 -6 45 -47 9 -26 16 -59 16 -75 0 -36 -32 -119 -59
-154 -30 -38 -17 -44 19 -9 40 38 65 115 64 198 -1 37 2 67 6 67 3 0 17 -11
30 -25 29 -30 74 -46 139 -47 28 -1 51 -5 51 -9 0 -18 54 -70 81 -76 l29 -8
-46 -72 c-46 -69 -49 -72 -143 -116 -53 -25 -107 -48 -121 -52 -70 -21 -127
-65 -83 -65 14 0 14 -2 -3 -21 -36 -40 -62 -43 -98 -8 -31 28 -58 47 -96 65
-8 4 -48 27 -88 51 -41 24 -75 43 -78 43 -2 0 -17 8 -34 18 l-30 19 39 79 c24
48 44 107 51 149 17 100 37 180 65 255 14 36 30 101 36 145 12 91 13 93 43
105 28 12 34 11 81 -1z m303 -9 c24 -11 61 -24 83 -30 35 -10 39 -14 39 -41 0
-17 -9 -43 -19 -58 -10 -14 -24 -46 -30 -71 -27 -107 -32 -118 -70 -134 -50
-23 -141 -46 -141 -36 0 4 11 11 25 14 13 3 43 24 67 45 l42 40 -17 83 c-9 46
-17 104 -17 131 0 26 -1 47 -2 47 -2 0 -21 7 -43 15 l-40 14 40 0 c22 0 59 -8
83 -19z m186 -52 c41 -18 41 -42 -1 -141 -22 -51 -48 -114 -59 -142 -18 -47
-22 -50 -61 -56 -22 -3 -49 -2 -59 2 -11 4 -14 8 -7 8 29 2 66 57 90 134 14
44 34 94 44 111 11 17 19 46 19 64 0 36 0 36 34 20z m421 -37 c4 -31 -9 -51
-18 -28 -5 14 3 70 10 64 2 -2 5 -18 8 -36z m-333 -144 c-16 -23 -47 -81 -69
-128 -39 -84 -42 -87 -79 -93 -64 -11 -127 -10 -156 2 -45 18 -32 27 40 28
103 1 120 13 157 114 17 47 42 108 54 135 l22 50 30 -33 29 -33 -28 -42z m24
-139 c13 -25 12 -32 -6 -70 -42 -88 -89 -117 -132 -84 -25 18 -22 34 6 48 23
10 61 76 80 136 6 19 10 21 23 11 8 -7 21 -25 29 -41z m-932 -313 c-4 -8 -10
-15 -14 -15 -4 0 -13 7 -20 15 -11 13 -8 15 13 15 19 0 25 -4 21 -15z m1451
-342 c50 -57 134 -119 258 -190 56 -32 108 -74 162 -130 45 -46 86 -83 93 -83
23 0 11 -45 -21 -81 -19 -20 -68 -62 -110 -93 -70 -52 -112 -100 -130 -148
-16 -45 -48 -6 -92 116 -48 132 -93 240 -153 366 -190 398 -220 482 -198 549
7 21 17 6 77 -115 42 -85 86 -159 114 -191z m-1477 298 c15 -10 70 -42 122
-71 124 -69 192 -116 262 -180 l58 -52 -52 -58 c-28 -32 -59 -61 -70 -63 -17
-5 -17 -4 2 20 38 49 14 133 -38 133 -38 0 -82 -71 -82 -130 0 -24 5 -31 28
-37 22 -5 11 -10 -60 -23 -48 -10 -109 -20 -136 -24 l-49 -6 -50 60 c-28 34
-59 78 -71 98 -20 37 -20 38 -2 87 30 83 105 264 108 265 2 0 16 -8 30 -19z
m2351 -771 c30 -95 31 -104 25 -210 l-7 -111 -29 28 c-16 15 -58 87 -93 159
-35 72 -77 145 -93 162 l-30 32 37 6 c20 3 59 12 86 19 28 7 55 14 61 14 6 1
26 -44 43 -99z m-450 -194 c25 -19 57 -46 70 -60 l24 -25 -21 -128 c-37 -221
-45 -292 -51 -503 l-6 -205 -23 80 c-13 44 -37 121 -52 170 -16 50 -49 171
-74 270 -25 99 -50 196 -56 215 -13 44 -13 51 2 48 6 -2 26 24 45 57 31 53 79
115 91 115 2 0 25 -15 51 -34z m194 -13 c-7 -2 -19 -2 -25 0 -7 3 -2 5 12 5
14 0 19 -2 13 -5z m14 -39 c-3 -3 -12 -4 -19 -1 -8 3 -5 6 6 6 11 1 17 -2 13
-5z m647 -279 c18 -14 42 -25 54 -25 16 0 22 -8 27 -41 8 -45 4 -54 -21 -45
-13 5 -15 9 -6 18 15 15 16 58 2 58 -5 0 -10 -9 -10 -20 0 -11 -5 -20 -11 -20
-5 0 -7 -4 -4 -10 4 -6 -6 -10 -23 -10 -27 0 -31 4 -41 44 -12 49 -14 76 -5
76 3 0 20 -11 38 -25z"/>
<path d="M3716 3989 c-25 -22 -46 -46 -46 -52 0 -7 12 0 25 16 29 33 32 33 31
5 -1 -31 39 -31 96 -1 40 21 41 23 15 23 -15 0 -43 -7 -62 -14 -40 -17 -44
-10 -15 27 41 52 18 50 -44 -4z"/>
<path d="M3230 4010 c0 -5 4 -10 8 -10 5 0 22 -11 38 -25 l29 -26 -30 7 c-16
4 -40 11 -53 15 -54 20 -58 0 -6 -25 54 -25 36 -29 -44 -10 -80 19 -137 10
-67 -11 22 -7 66 -15 99 -18 52 -5 59 -4 63 13 5 18 7 18 34 5 43 -23 54 -19
34 11 -9 14 -15 28 -12 30 2 3 27 -11 56 -30 41 -28 51 -31 51 -18 0 10 -7 28
-16 40 -22 32 -13 37 19 11 15 -11 27 -16 27 -10 0 15 -44 42 -85 51 -42 10
-44 3 -7 -27 24 -20 20 -20 -40 7 -70 31 -98 37 -98 20z"/>
<path d="M3518 3968 c4 -59 -25 -103 -75 -117 -52 -15 -93 -14 -198 5 -96 17
-249 14 -269 -6 -7 -7 24 -10 100 -10 65 0 133 -6 167 -15 32 -8 80 -15 107
-15 41 0 50 -3 50 -17 1 -22 25 -55 33 -46 4 3 7 18 7 33 0 20 8 30 33 42 40
19 73 99 63 153 -10 49 -22 44 -18 -7z"/>
<path d="M2990 3896 c0 -9 40 -13 46 -5 3 5 -6 9 -20 9 -14 0 -26 -2 -26 -4z"/>
<path d="M3170 3789 c-30 -11 -88 -26 -129 -32 -71 -11 -108 -34 -59 -36 159
-4 272 -1 282 9 8 9 3 11 -20 6 -26 -6 -32 -4 -37 13 -4 15 0 21 11 22 24 2
24 2 60 -6 48 -10 42 19 -7 33 -21 7 -40 12 -42 11 -2 0 -29 -9 -59 -20z"/>
<path d="M2970 3675 c0 -3 18 -16 39 -31 30 -19 56 -27 114 -31 89 -7 114 -2
153 32 16 14 33 25 38 25 5 0 7 2 4 5 -3 3 -29 -6 -58 -21 -47 -24 -61 -26
-121 -21 -38 3 -85 15 -108 26 -39 20 -61 26 -61 16z"/>
<path d="M2592 3608 c-28 -28 7 -160 54 -199 26 -21 28 0 5 49 -13 26 -29 73
-35 105 -9 45 -14 55 -24 45z"/>
<path d="M3650 3505 c0 -32 7 -55 20 -72 12 -15 20 -41 20 -63 0 -34 -5 -40
-51 -69 -69 -42 -119 -43 -158 0 -26 28 -34 31 -77 27 l-49 -3 -3 44 c-4 47 6
61 46 61 13 0 20 4 17 10 -15 24 -57 9 -99 -35 -25 -25 -49 -45 -54 -45 -18 0
-204 -189 -197 -200 4 -7 14 -3 28 13 12 13 38 34 57 48 19 13 64 52 99 88
l65 64 11 -32 c13 -40 35 -53 74 -46 23 4 34 0 48 -18 44 -57 101 -61 193 -14
36 18 70 42 75 54 10 20 13 18 44 -33 17 -29 35 -73 39 -96 4 -23 13 -43 20
-46 30 -10 -3 88 -58 174 -22 33 -40 67 -40 75 0 8 -11 37 -25 64 -13 28 -25
58 -25 67 0 9 -4 20 -10 23 -6 4 -10 -12 -10 -40z"/>
<path d="M3500 3171 c0 -19 38 -33 60 -21 27 15 25 19 -9 18 -15 -1 -33 2 -40
6 -6 4 -11 3 -11 -3z"/>
<path d="M3185 3139 c-37 -33 -39 -60 -2 -34 26 18 62 19 119 4 30 -8 60 -9
98 -2 40 7 69 6 105 -4 33 -8 60 -10 80 -4 57 17 156 23 171 10 20 -17 26 -6
14 26 -8 20 -14 25 -28 20 -9 -4 -43 -9 -74 -10 -31 -1 -70 -8 -87 -14 -23
-10 -38 -10 -66 -1 -23 8 -60 9 -105 5 -87 -9 -170 2 -170 21 0 22 -16 17 -55
-17z"/>
<path d="M2655 3089 c-19 -58 60 -281 129 -364 45 -55 39 -16 -13 87 -29 58
-56 127 -61 158 -19 114 -42 162 -55 119z"/>
<path d="M3489 3000 c-41 -7 -140 -61 -122 -67 6 -2 35 5 64 17 30 11 64 20
75 20 24 0 78 -22 112 -46 19 -14 22 -14 22 -2 0 37 -98 87 -151 78z"/>
<path d="M3640 2852 c0 -10 -9 -47 -21 -81 -11 -35 -18 -65 -16 -68 3 -2 15
10 27 26 24 35 41 141 21 141 -6 0 -11 -8 -11 -18z"/>
<path d="M1381 3037 c16 -13 138 -64 133 -56 -8 13 -103 59 -123 59 -8 0 -12
-2 -10 -3z"/>
<path d="M3938 1563 c7 -3 16 -2 19 1 4 3 -2 6 -13 5 -11 0 -14 -3 -6 -6z"/>
</g>
</svg>
